<svg viewBox="0 0 1200 630" xmlns="http://www.w3.org/2000/svg">
  <rect width="1200" height="630" fill="#0A0A0D"/>
  <circle cx="150" cy="100" r="220" fill="#34D399" opacity="0.09"/>
  <circle cx="1080" cy="540" r="240" fill="#8B5CF6" opacity="0.12"/>

  <!-- Browser window -->
  <g transform="translate(300,175)">
    <rect x="0" y="0" width="320" height="230" rx="10" fill="#131318" stroke="#2A2A33" stroke-width="2"/>
    <rect x="0" y="0" width="320" height="34" rx="10" fill="#1B1B22"/>
    <circle cx="20" cy="17" r="5" fill="#8B5CF6"/>
    <circle cx="38" cy="17" r="5" fill="#34D399"/>
    <circle cx="56" cy="17" r="5" fill="#B8A6FF"/>
    <rect x="30" y="60" width="180" height="14" rx="7" fill="#8B5CF6"/>
    <rect x="30" y="86" width="260" height="10" rx="5" fill="#33333B"/>
    <rect x="30" y="106" width="220" height="10" rx="5" fill="#33333B"/>
    <rect x="30" y="140" width="100" height="30" rx="15" fill="#8B5CF6"/>
  </g>

  <!-- VS -->
  <text x="620" y="320" font-family="Arial, sans-serif" font-size="42" font-weight="800" fill="#93939F" text-anchor="middle">o</text>

  <!-- Phone -->
  <g transform="translate(700,140)">
    <rect x="0" y="0" width="150" height="290" rx="26" fill="#131318" stroke="#2A2A33" stroke-width="2"/>
    <rect x="14" y="24" width="122" height="210" rx="8" fill="#1B1B22"/>
    <rect x="26" y="40" width="98" height="34" rx="7" fill="#34D399" opacity="0.35"/>
    <rect x="26" y="86" width="45" height="40" rx="6" fill="#1B1B22" stroke="#2A2A33"/>
    <rect x="79" y="86" width="45" height="40" rx="6" fill="#1B1B22" stroke="#2A2A33"/>
    <rect x="26" y="136" width="98" height="10" rx="5" fill="#33333B"/>
    <rect x="26" y="156" width="70" height="10" rx="5" fill="#33333B"/>
    <circle cx="75" cy="262" r="10" fill="#33333B"/>
  </g>
</svg>
